# xmcd
# 
# Track frame offsets:
#     150
#     25557
#     43961
#     73229
#     88643
#     103209
#     121580
#     141501
#     154281
#     178445
# 
# Disc length: 2563
# 
# Revision: 0
# Processed by: cddbd v1.5.2PL0 Copyright (c) Steve Scherf et al.
# Submitted via: fre:ac v1.0.31
# 
DISCID=920a010a
DTITLE=Or Bareket - 33
DYEAR=2018
DGENRE=Jazz
TTITLE0=Still Searching
TTITLE1=Feb 1st
TTITLE2=Reginia
TTITLE3=Zamba de Argamonte
TTITLE4=Carmo Capricho
TTITLE5=W Schubert and Troy
TTITLE6=Vienna
TTITLE7=Yarkan
TTITLE8=Thirty Three
TTITLE9=Tzafonah
EXTD=
EXTT0=
EXTT1=
EXTT2=
EXTT3=
EXTT4=
EXTT5=
EXTT6=
EXTT7=
EXTT8=
EXTT9=
PLAYORDER=
